<svg width="100" height="100" viewBox="0 0 100 100" fill="none" xmlns="http://www.w3.org/2000/svg">
<rect x="21" y="70" width="58" height="22" stroke="black" stroke-width="2"/>
<rect x="49" y="71" width="2" height="20" fill="black"/>
<rect x="60" y="71" width="2" height="20" fill="black"/>
<rect x="38" y="71" width="2" height="20" fill="black"/>
<rect x="31" y="71" width="2" height="20" fill="black"/>
<rect x="26" y="71" width="2" height="20" fill="black"/>
<rect x="23" y="71" width="2" height="20" fill="black"/>
<rect x="78" y="73" width="2" height="56" transform="rotate(90 78 73)" fill="black"/>
<rect x="67" y="71" width="2" height="20" fill="black"/>
<rect x="72" y="71" width="2" height="20" fill="black"/>
<rect x="75" y="71" width="2" height="20" fill="black"/>
<path d="M24.59 60L23 67H44.2946H76L74.41 60M24.59 60H74.41M24.59 60L26.6343 51M74.41 60L72.3657 51M26.6343 51L28.6786 42H70.3214L72.3657 51M26.6343 51H72.3657" stroke="black" stroke-width="2"/>
<path d="M29 40V30L31.5 32.5" stroke="black" stroke-width="2"/>
<path d="M32 40V30L34.5 32.5" stroke="black" stroke-width="2"/>
<path d="M35 40V30L37.5 32.5" stroke="black" stroke-width="2"/>
<path d="M38 40V30L40.5 32.5" stroke="black" stroke-width="2"/>
<path d="M70 40V30L67.5 32.5" stroke="black" stroke-width="2"/>
<path d="M67 40V30L64 32.5" stroke="black" stroke-width="2"/>
<path d="M64 40V30L61.5 32.5" stroke="black" stroke-width="2"/>
<path d="M61 40V30L58.5 32.5" stroke="black" stroke-width="2"/>
<path d="M28 39H70M39 32H59" stroke="black" stroke-width="2"/>
<path d="M35 27V25H64.5V27" stroke="black" stroke-width="2"/>
<path d="M49 23V20M49 20V10.5C49.6667 10 51.8 9 55 9C59 9 58.5 13 62.5 11V20C58.5 22 59 18 55 18C51 18 49 20 49 20Z" stroke="black" stroke-width="2"/>
</svg>
